<svg xmlns="http://www.w3.org/2000/svg" viewBox="0 0 64 64" fill="none">
  <rect width="64" height="64" rx="8" fill="#1a1209"/>
  <rect x="4" y="4" width="56" height="56" rx="6" stroke="#8b6914" stroke-width="2" fill="#2d1810"/>
  <circle cx="32" cy="32" r="18" stroke="#c9a227" stroke-width="2" fill="none"/>
  <circle cx="32" cy="32" r="12" stroke="#8b6914" stroke-width="1.5" fill="#1a1209"/>
  <path d="M32 14 L34 22 L32 20 L30 22 Z" fill="#d4af37"/>
  <path d="M50 32 L42 34 L44 32 L42 30 Z" fill="#d4af37"/>
  <path d="M32 50 L30 42 L32 44 L34 42 Z" fill="#d4af37"/>
  <path d="M14 32 L22 30 L20 32 L22 34 Z" fill="#d4af37"/>
  <circle cx="32" cy="32" r="4" fill="#c9a227"/>
  <circle cx="10" cy="10" r="2" fill="#8b6914"/>
  <circle cx="54" cy="10" r="2" fill="#8b6914"/>
  <circle cx="10" cy="54" r="2" fill="#8b6914"/>
  <circle cx="54" cy="54" r="2" fill="#8b6914"/>
</svg>
